<svg xmlns="http://www.w3.org/2000/svg" version="1.1" xmlns:xlink="http://www.w3.org/1999/xlink" xmlns:svgjs="http://svgjs.dev/svgjs" width="1440" height="560" preserveAspectRatio="none" viewBox="0 0 1440 560"><g mask="url(&quot;#SvgjsMask1000&quot;)" fill="none"><rect width="1440" height="560" x="0" y="0" fill="#0e2a47"></rect><path d="M9.97 -49.3L74.92 -11.8L74.92 63.2L9.97 100.7L-54.98 63.2L-54.98 -11.8zM74.92 63.2L139.88 100.7L139.88 175.7L74.92 213.2L9.97 175.7L9.97 100.7zM9.97 400.7L74.92 438.2L74.92 513.2L9.97 550.7L-54.98 513.2L-54.98 438.2zM139.88 -49.3L204.83 -11.8L204.83 63.2L139.88 100.7L74.92 63.2L74.92 -11.8zM204.83 63.2L269.79 100.7L269.79 175.7L204.83 213.2L139.88 175.7L139.88 100.7zM204.83 288.2L269.79 325.7L269.79 400.7L204.83 438.2L139.88 400.7L139.88 325.7zM204.83 513.2L269.79 550.7L269.79 625.7L204.83 663.2L139.88 625.7L139.88 550.7zM269.79 -49.3L334.74 -11.8L334.74 63.2L269.79 100.7L204.83 63.2L204.83 -11.8zM334.74 63.2L399.69 100.7L399.69 175.7L334.74 213.2L269.79 175.7L269.79 100.7zM399.69 -49.3L464.65 -11.8L464.65 63.2L399.69 100.7L334.74 63.2L334.74 -11.8zM464.65 63.2L529.6 100.7L529.6 175.7L464.65 213.2L399.69 175.7L399.69 100.7zM399.69 175.7L464.65 213.2L464.65 288.2L399.69 325.7L334.74 288.2L334.74 213.2zM464.65 288.2L529.6 325.7L529.6 400.7L464.65 438.2L399.69 400.7L399.69 325.7zM399.69 400.7L464.65 438.2L464.65 513.2L399.69 550.7L334.74 513.2L334.74 438.2zM529.6 -49.3L594.55 -11.8L594.55 63.2L529.6 100.7L464.65 63.2L464.65 -11.8zM594.55 63.2L659.51 100.7L659.51 175.7L594.55 213.2L529.6 175.7L529.6 100.7zM594.55 288.2L659.51 325.7L659.51 400.7L594.55 438.2L529.6 400.7L529.6 325.7zM594.55 513.2L659.51 550.7L659.51 625.7L594.55 663.2L529.6 625.7L529.6 550.7zM724.46 513.2L789.42 550.7L789.42 625.7L724.46 663.2L659.51 625.7L659.51 550.7zM854.37 63.2L919.32 100.7L919.32 175.7L854.37 213.2L789.41 175.7L789.41 100.7zM919.32 400.7L984.28 438.2L984.28 513.2L919.32 550.7L854.37 513.2L854.37 438.2zM984.28 513.2L1049.23 550.7L1049.23 625.7L984.28 663.2L919.32 625.7L919.32 550.7zM1049.23 -49.3L1114.18 -11.8L1114.18 63.2L1049.23 100.7L984.28 63.2L984.28 -11.8zM1049.23 400.7L1114.18 438.2L1114.18 513.2L1049.23 550.7L984.28 513.2L984.28 438.2zM1114.18 513.2L1179.14 550.7L1179.14 625.7L1114.18 663.2L1049.23 625.7L1049.23 550.7zM1179.14 -49.3L1244.09 -11.8L1244.09 63.2L1179.14 100.7L1114.18 63.2L1114.18 -11.8zM1179.14 175.7L1244.09 213.2L1244.09 288.2L1179.14 325.7L1114.18 288.2L1114.18 213.2zM1244.09 288.2L1309.04 325.7L1309.04 400.7L1244.09 438.2L1179.14 400.7L1179.14 325.7zM1179.14 400.7L1244.09 438.2L1244.09 513.2L1179.14 550.7L1114.18 513.2L1114.18 438.2zM1309.05 -49.3L1374 -11.8L1374 63.2L1309.05 100.7L1244.09 63.2L1244.09 -11.8zM1309.05 175.7L1374 213.2L1374 288.2L1309.05 325.7L1244.09 288.2L1244.09 213.2zM1309.05 400.7L1374 438.2L1374 513.2L1309.05 550.7L1244.09 513.2L1244.09 438.2zM1503.91 513.2L1568.86 550.7L1568.86 625.7L1503.91 663.2L1438.95 625.7L1438.95 550.7z" stroke="#03305d" stroke-width="2"></path><path d="M2.47 -49.3 a7.5 7.5 0 1 0 15 0 a7.5 7.5 0 1 0 -15 0zM67.42 -11.8 a7.5 7.5 0 1 0 15 0 a7.5 7.5 0 1 0 -15 0zM67.42 63.2 a7.5 7.5 0 1 0 15 0 a7.5 7.5 0 1 0 -15 0zM2.47 100.7 a7.5 7.5 0 1 0 15 0 a7.5 7.5 0 1 0 -15 0zM-62.48 63.2 a7.5 7.5 0 1 0 15 0 a7.5 7.5 0 1 0 -15 0zM-62.48 -11.8 a7.5 7.5 0 1 0 15 0 a7.5 7.5 0 1 0 -15 0zM132.38 100.7 a7.5 7.5 0 1 0 15 0 a7.5 7.5 0 1 0 -15 0zM132.38 175.7 a7.5 7.5 0 1 0 15 0 a7.5 7.5 0 1 0 -15 0zM67.42 213.2 a7.5 7.5 0 1 0 15 0 a7.5 7.5 0 1 0 -15 0zM2.47 175.7 a7.5 7.5 0 1 0 15 0 a7.5 7.5 0 1 0 -15 0zM2.47 400.7 a7.5 7.5 0 1 0 15 0 a7.5 7.5 0 1 0 -15 0zM67.42 438.2 a7.5 7.5 0 1 0 15 0 a7.5 7.5 0 1 0 -15 0zM67.42 513.2 a7.5 7.5 0 1 0 15 0 a7.5 7.5 0 1 0 -15 0zM2.47 550.7 a7.5 7.5 0 1 0 15 0 a7.5 7.5 0 1 0 -15 0zM-62.48 513.2 a7.5 7.5 0 1 0 15 0 a7.5 7.5 0 1 0 -15 0zM-62.48 438.2 a7.5 7.5 0 1 0 15 0 a7.5 7.5 0 1 0 -15 0zM132.38 -49.3 a7.5 7.5 0 1 0 15 0 a7.5 7.5 0 1 0 -15 0zM197.33 -11.8 a7.5 7.5 0 1 0 15 0 a7.5 7.5 0 1 0 -15 0zM197.33 63.2 a7.5 7.5 0 1 0 15 0 a7.5 7.5 0 1 0 -15 0zM262.29 100.7 a7.5 7.5 0 1 0 15 0 a7.5 7.5 0 1 0 -15 0zM262.29 175.7 a7.5 7.5 0 1 0 15 0 a7.5 7.5 0 1 0 -15 0zM197.33 213.2 a7.5 7.5 0 1 0 15 0 a7.5 7.5 0 1 0 -15 0zM197.33 288.2 a7.5 7.5 0 1 0 15 0 a7.5 7.5 0 1 0 -15 0zM262.29 325.7 a7.5 7.5 0 1 0 15 0 a7.5 7.5 0 1 0 -15 0zM262.29 400.7 a7.5 7.5 0 1 0 15 0 a7.5 7.5 0 1 0 -15 0zM197.33 438.2 a7.5 7.5 0 1 0 15 0 a7.5 7.5 0 1 0 -15 0zM132.38 400.7 a7.5 7.5 0 1 0 15 0 a7.5 7.5 0 1 0 -15 0zM132.38 325.7 a7.5 7.5 0 1 0 15 0 a7.5 7.5 0 1 0 -15 0zM197.33 513.2 a7.5 7.5 0 1 0 15 0 a7.5 7.5 0 1 0 -15 0zM262.29 550.7 a7.5 7.5 0 1 0 15 0 a7.5 7.5 0 1 0 -15 0zM262.29 625.7 a7.5 7.5 0 1 0 15 0 a7.5 7.5 0 1 0 -15 0zM197.33 663.2 a7.5 7.5 0 1 0 15 0 a7.5 7.5 0 1 0 -15 0zM132.38 625.7 a7.5 7.5 0 1 0 15 0 a7.5 7.5 0 1 0 -15 0zM132.38 550.7 a7.5 7.5 0 1 0 15 0 a7.5 7.5 0 1 0 -15 0zM262.29 -49.3 a7.5 7.5 0 1 0 15 0 a7.5 7.5 0 1 0 -15 0zM327.24 -11.8 a7.5 7.5 0 1 0 15 0 a7.5 7.5 0 1 0 -15 0zM327.24 63.2 a7.5 7.5 0 1 0 15 0 a7.5 7.5 0 1 0 -15 0zM392.19 100.7 a7.5 7.5 0 1 0 15 0 a7.5 7.5 0 1 0 -15 0zM392.19 175.7 a7.5 7.5 0 1 0 15 0 a7.5 7.5 0 1 0 -15 0zM327.24 213.2 a7.5 7.5 0 1 0 15 0 a7.5 7.5 0 1 0 -15 0zM392.19 -49.3 a7.5 7.5 0 1 0 15 0 a7.5 7.5 0 1 0 -15 0zM457.15 -11.8 a7.5 7.5 0 1 0 15 0 a7.5 7.5 0 1 0 -15 0zM457.15 63.2 a7.5 7.5 0 1 0 15 0 a7.5 7.5 0 1 0 -15 0zM522.1 100.7 a7.5 7.5 0 1 0 15 0 a7.5 7.5 0 1 0 -15 0zM522.1 175.7 a7.5 7.5 0 1 0 15 0 a7.5 7.5 0 1 0 -15 0zM457.15 213.2 a7.5 7.5 0 1 0 15 0 a7.5 7.5 0 1 0 -15 0zM457.15 288.2 a7.5 7.5 0 1 0 15 0 a7.5 7.5 0 1 0 -15 0zM392.19 325.7 a7.5 7.5 0 1 0 15 0 a7.5 7.5 0 1 0 -15 0zM327.24 288.2 a7.5 7.5 0 1 0 15 0 a7.5 7.5 0 1 0 -15 0zM522.1 325.7 a7.5 7.5 0 1 0 15 0 a7.5 7.5 0 1 0 -15 0zM522.1 400.7 a7.5 7.5 0 1 0 15 0 a7.5 7.5 0 1 0 -15 0zM457.15 438.2 a7.5 7.5 0 1 0 15 0 a7.5 7.5 0 1 0 -15 0zM392.19 400.7 a7.5 7.5 0 1 0 15 0 a7.5 7.5 0 1 0 -15 0zM457.15 513.2 a7.5 7.5 0 1 0 15 0 a7.5 7.5 0 1 0 -15 0zM392.19 550.7 a7.5 7.5 0 1 0 15 0 a7.5 7.5 0 1 0 -15 0zM327.24 513.2 a7.5 7.5 0 1 0 15 0 a7.5 7.5 0 1 0 -15 0zM327.24 438.2 a7.5 7.5 0 1 0 15 0 a7.5 7.5 0 1 0 -15 0zM522.1 -49.3 a7.5 7.5 0 1 0 15 0 a7.5 7.5 0 1 0 -15 0zM587.05 -11.8 a7.5 7.5 0 1 0 15 0 a7.5 7.5 0 1 0 -15 0zM587.05 63.2 a7.5 7.5 0 1 0 15 0 a7.5 7.5 0 1 0 -15 0zM652.01 100.7 a7.5 7.5 0 1 0 15 0 a7.5 7.5 0 1 0 -15 0zM652.01 175.7 a7.5 7.5 0 1 0 15 0 a7.5 7.5 0 1 0 -15 0zM587.05 213.2 a7.5 7.5 0 1 0 15 0 a7.5 7.5 0 1 0 -15 0zM587.05 288.2 a7.5 7.5 0 1 0 15 0 a7.5 7.5 0 1 0 -15 0zM652.01 325.7 a7.5 7.5 0 1 0 15 0 a7.5 7.5 0 1 0 -15 0zM652.01 400.7 a7.5 7.5 0 1 0 15 0 a7.5 7.5 0 1 0 -15 0zM587.05 438.2 a7.5 7.5 0 1 0 15 0 a7.5 7.5 0 1 0 -15 0zM587.05 513.2 a7.5 7.5 0 1 0 15 0 a7.5 7.5 0 1 0 -15 0zM652.01 550.7 a7.5 7.5 0 1 0 15 0 a7.5 7.5 0 1 0 -15 0zM652.01 625.7 a7.5 7.5 0 1 0 15 0 a7.5 7.5 0 1 0 -15 0zM587.05 663.2 a7.5 7.5 0 1 0 15 0 a7.5 7.5 0 1 0 -15 0zM522.1 625.7 a7.5 7.5 0 1 0 15 0 a7.5 7.5 0 1 0 -15 0zM522.1 550.7 a7.5 7.5 0 1 0 15 0 a7.5 7.5 0 1 0 -15 0zM716.96 513.2 a7.5 7.5 0 1 0 15 0 a7.5 7.5 0 1 0 -15 0zM781.92 550.7 a7.5 7.5 0 1 0 15 0 a7.5 7.5 0 1 0 -15 0zM781.92 625.7 a7.5 7.5 0 1 0 15 0 a7.5 7.5 0 1 0 -15 0zM716.96 663.2 a7.5 7.5 0 1 0 15 0 a7.5 7.5 0 1 0 -15 0zM846.87 63.2 a7.5 7.5 0 1 0 15 0 a7.5 7.5 0 1 0 -15 0zM911.82 100.7 a7.5 7.5 0 1 0 15 0 a7.5 7.5 0 1 0 -15 0zM911.82 175.7 a7.5 7.5 0 1 0 15 0 a7.5 7.5 0 1 0 -15 0zM846.87 213.2 a7.5 7.5 0 1 0 15 0 a7.5 7.5 0 1 0 -15 0zM781.91 175.7 a7.5 7.5 0 1 0 15 0 a7.5 7.5 0 1 0 -15 0zM781.91 100.7 a7.5 7.5 0 1 0 15 0 a7.5 7.5 0 1 0 -15 0zM911.82 400.7 a7.5 7.5 0 1 0 15 0 a7.5 7.5 0 1 0 -15 0zM976.78 438.2 a7.5 7.5 0 1 0 15 0 a7.5 7.5 0 1 0 -15 0zM976.78 513.2 a7.5 7.5 0 1 0 15 0 a7.5 7.5 0 1 0 -15 0zM911.82 550.7 a7.5 7.5 0 1 0 15 0 a7.5 7.5 0 1 0 -15 0zM846.87 513.2 a7.5 7.5 0 1 0 15 0 a7.5 7.5 0 1 0 -15 0zM846.87 438.2 a7.5 7.5 0 1 0 15 0 a7.5 7.5 0 1 0 -15 0zM1041.73 550.7 a7.5 7.5 0 1 0 15 0 a7.5 7.5 0 1 0 -15 0zM1041.73 625.7 a7.5 7.5 0 1 0 15 0 a7.5 7.5 0 1 0 -15 0zM976.78 663.2 a7.5 7.5 0 1 0 15 0 a7.5 7.5 0 1 0 -15 0zM911.82 625.7 a7.5 7.5 0 1 0 15 0 a7.5 7.5 0 1 0 -15 0zM1041.73 -49.3 a7.5 7.5 0 1 0 15 0 a7.5 7.5 0 1 0 -15 0zM1106.68 -11.8 a7.5 7.5 0 1 0 15 0 a7.5 7.5 0 1 0 -15 0zM1106.68 63.2 a7.5 7.5 0 1 0 15 0 a7.5 7.5 0 1 0 -15 0zM1041.73 100.7 a7.5 7.5 0 1 0 15 0 a7.5 7.5 0 1 0 -15 0zM976.78 63.2 a7.5 7.5 0 1 0 15 0 a7.5 7.5 0 1 0 -15 0zM976.78 -11.8 a7.5 7.5 0 1 0 15 0 a7.5 7.5 0 1 0 -15 0zM1041.73 400.7 a7.5 7.5 0 1 0 15 0 a7.5 7.5 0 1 0 -15 0zM1106.68 438.2 a7.5 7.5 0 1 0 15 0 a7.5 7.5 0 1 0 -15 0zM1106.68 513.2 a7.5 7.5 0 1 0 15 0 a7.5 7.5 0 1 0 -15 0zM1171.64 550.7 a7.5 7.5 0 1 0 15 0 a7.5 7.5 0 1 0 -15 0zM1171.64 625.7 a7.5 7.5 0 1 0 15 0 a7.5 7.5 0 1 0 -15 0zM1106.68 663.2 a7.5 7.5 0 1 0 15 0 a7.5 7.5 0 1 0 -15 0zM1171.64 -49.3 a7.5 7.5 0 1 0 15 0 a7.5 7.5 0 1 0 -15 0zM1236.59 -11.8 a7.5 7.5 0 1 0 15 0 a7.5 7.5 0 1 0 -15 0zM1236.59 63.2 a7.5 7.5 0 1 0 15 0 a7.5 7.5 0 1 0 -15 0zM1171.64 100.7 a7.5 7.5 0 1 0 15 0 a7.5 7.5 0 1 0 -15 0zM1171.64 175.7 a7.5 7.5 0 1 0 15 0 a7.5 7.5 0 1 0 -15 0zM1236.59 213.2 a7.5 7.5 0 1 0 15 0 a7.5 7.5 0 1 0 -15 0zM1236.59 288.2 a7.5 7.5 0 1 0 15 0 a7.5 7.5 0 1 0 -15 0zM1171.64 325.7 a7.5 7.5 0 1 0 15 0 a7.5 7.5 0 1 0 -15 0zM1106.68 288.2 a7.5 7.5 0 1 0 15 0 a7.5 7.5 0 1 0 -15 0zM1106.68 213.2 a7.5 7.5 0 1 0 15 0 a7.5 7.5 0 1 0 -15 0zM1301.54 325.7 a7.5 7.5 0 1 0 15 0 a7.5 7.5 0 1 0 -15 0zM1301.54 400.7 a7.5 7.5 0 1 0 15 0 a7.5 7.5 0 1 0 -15 0zM1236.59 438.2 a7.5 7.5 0 1 0 15 0 a7.5 7.5 0 1 0 -15 0zM1171.64 400.7 a7.5 7.5 0 1 0 15 0 a7.5 7.5 0 1 0 -15 0zM1236.59 513.2 a7.5 7.5 0 1 0 15 0 a7.5 7.5 0 1 0 -15 0zM1301.55 -49.3 a7.5 7.5 0 1 0 15 0 a7.5 7.5 0 1 0 -15 0zM1366.5 -11.8 a7.5 7.5 0 1 0 15 0 a7.5 7.5 0 1 0 -15 0zM1366.5 63.2 a7.5 7.5 0 1 0 15 0 a7.5 7.5 0 1 0 -15 0zM1301.55 100.7 a7.5 7.5 0 1 0 15 0 a7.5 7.5 0 1 0 -15 0zM1301.55 175.7 a7.5 7.5 0 1 0 15 0 a7.5 7.5 0 1 0 -15 0zM1366.5 213.2 a7.5 7.5 0 1 0 15 0 a7.5 7.5 0 1 0 -15 0zM1366.5 288.2 a7.5 7.5 0 1 0 15 0 a7.5 7.5 0 1 0 -15 0zM1301.55 325.7 a7.5 7.5 0 1 0 15 0 a7.5 7.5 0 1 0 -15 0zM1301.55 400.7 a7.5 7.5 0 1 0 15 0 a7.5 7.5 0 1 0 -15 0zM1366.5 438.2 a7.5 7.5 0 1 0 15 0 a7.5 7.5 0 1 0 -15 0zM1366.5 513.2 a7.5 7.5 0 1 0 15 0 a7.5 7.5 0 1 0 -15 0zM1301.55 550.7 a7.5 7.5 0 1 0 15 0 a7.5 7.5 0 1 0 -15 0zM1496.41 513.2 a7.5 7.5 0 1 0 15 0 a7.5 7.5 0 1 0 -15 0zM1561.36 550.7 a7.5 7.5 0 1 0 15 0 a7.5 7.5 0 1 0 -15 0zM1561.36 625.7 a7.5 7.5 0 1 0 15 0 a7.5 7.5 0 1 0 -15 0zM1496.41 663.2 a7.5 7.5 0 1 0 15 0 a7.5 7.5 0 1 0 -15 0zM1431.45 625.7 a7.5 7.5 0 1 0 15 0 a7.5 7.5 0 1 0 -15 0zM1431.45 550.7 a7.5 7.5 0 1 0 15 0 a7.5 7.5 0 1 0 -15 0z" fill="#03305d"></path><path d="M92.64 -16.73L135.94 8.27L135.94 58.27L92.64 83.27L49.33 58.27L49.33 8.27zM135.94 58.27L179.24 83.27L179.24 133.27L135.94 158.27L92.64 133.27L92.64 83.27zM92.64 283.27L135.94 308.27L135.94 358.27L92.64 383.27L49.33 358.27L49.33 308.27zM222.54 208.27L265.84 233.27L265.84 283.27L222.54 308.27L179.24 283.27L179.24 233.27zM309.15 208.27L352.45 233.27L352.45 283.27L309.15 308.27L265.84 283.27L265.84 233.27zM265.84 283.27L309.15 308.27L309.15 358.27L265.84 383.27L222.54 358.27L222.54 308.27zM352.45 -16.73L395.75 8.27L395.75 58.27L352.45 83.27L309.15 58.27L309.15 8.27zM352.45 283.27L395.75 308.27L395.75 358.27L352.45 383.27L309.15 358.27L309.15 308.27zM439.06 433.27L482.36 458.27L482.36 508.27L439.06 533.27L395.75 508.27L395.75 458.27zM568.96 208.27L612.26 233.27L612.26 283.27L568.96 308.27L525.66 283.27L525.66 233.27zM525.66 283.27L568.96 308.27L568.96 358.27L525.66 383.27L482.36 358.27L482.36 308.27zM525.66 433.27L568.96 458.27L568.96 508.27L525.66 533.27L482.36 508.27L482.36 458.27zM612.26 133.27L655.57 158.27L655.57 208.27L612.26 233.27L568.96 208.27L568.96 158.27zM698.87 133.27L742.17 158.27L742.17 208.27L698.87 233.27L655.57 208.27L655.57 158.27zM698.87 283.27L742.17 308.27L742.17 358.27L698.87 383.27L655.57 358.27L655.57 308.27zM785.48 133.27L828.78 158.27L828.78 208.27L785.48 233.27L742.17 208.27L742.17 158.27zM828.78 208.27L872.08 233.27L872.08 283.27L828.78 308.27L785.48 283.27L785.48 233.27zM1001.99 58.27L1045.29 83.27L1045.29 133.27L1001.99 158.27L958.69 133.27L958.69 83.27zM958.69 133.27L1001.99 158.27L1001.99 208.27L958.69 233.27L915.38 208.27L915.38 158.27zM958.69 283.27L1001.99 308.27L1001.99 358.27L958.69 383.27L915.38 358.27L915.38 308.27zM1088.59 58.27L1131.89 83.27L1131.89 133.27L1088.59 158.27L1045.29 133.27L1045.29 83.27zM1045.29 283.27L1088.59 308.27L1088.59 358.27L1045.29 383.27L1001.99 358.27L1001.99 308.27zM1088.59 358.27L1131.89 383.27L1131.89 433.27L1088.59 458.27L1045.29 433.27L1045.29 383.27zM1175.2 208.27L1218.5 233.27L1218.5 283.27L1175.2 308.27L1131.89 283.27L1131.89 233.27zM1175.2 358.27L1218.5 383.27L1218.5 433.27L1175.2 458.27L1131.89 433.27L1131.89 383.27zM1348.41 208.27L1391.71 233.27L1391.71 283.27L1348.41 308.27L1305.11 283.27L1305.11 233.27zM1348.41 358.27L1391.71 383.27L1391.71 433.27L1348.41 458.27L1305.11 433.27L1305.11 383.27zM1391.71 133.27L1435.01 158.27L1435.01 208.27L1391.71 233.27L1348.41 208.27L1348.41 158.27zM1435.01 358.27L1478.32 383.27L1478.32 433.27L1435.01 458.27L1391.71 433.27L1391.71 383.27zM1435.01 508.27L1478.32 533.27L1478.32 583.27L1435.01 608.27L1391.71 583.27L1391.71 533.27z" stroke="rgba(6, 80, 156, 0.93)" stroke-width="2"></path></g><defs><mask id="SvgjsMask1000"><rect width="1440" height="560" fill="#ffffff"></rect></mask></defs></svg>